{"title":"Enrique_Iglesias-Tired_Of_Being_Sorry-DVDRip-XviD-2007-MVcl","uid":5733899,"size":44110076,"categoryP":"video","categoryS":"music_videos","magnet":"?xt=urn:btih:e68444a489b8421aa7e34844abf483f27670dbe1&amp;dn=Enrique_Iglesias-Tired_Of_Being_Sorry-DVDRip-XviD-2007-MVcl&amp;tr=udp%3A%2F%2Ftracker.openbittorrent.com%3A80&amp;tr=udp%3A%2F%2Fopen.demonii.com%3A1337&amp;tr=udp%3A%2F%2Ftracker.coppersurfer.tk%3A6969&amp;tr=udp%3A%2F%2Fexodus.desync.com%3A6969","seeders":0,"leechers":1,"uploader":null,"files":4,"time":1280748655,"description":"General\nComplete name                    : Enrique_Iglesias-Tired_Of_Being_Sorry-DVDRip-XviD-2007-MVcl.avi\nFormat                           : AVI\nFormat/Info                      : Audio Video Interleave\nFile size                        : 42.1 MiB\nDuration                         : 4mn 21s\nOverall bit rate                 : 1 349 Kbps\nWriting application              : VirtualDubMod 1.5.10.2 (build 2540/release)\nWriting library                  : VirtualDubMod build 2540/release\n\nVideo\nID                               : 0\nFormat                           : MPEG-4 Visual\nFormat profile                   : Advanced Simple@L5\nFormat settings, BVOP            : Yes\nFormat settings, QPel            : No\nFormat settings, GMC             : No warppoints\nFormat settings, Matrix          : Default (H.263)\nMuxing mode                      : Packed bitstream\nCodec ID                         : XVID\nCodec ID/Hint                    : XviD\nDuration                         : 4mn 21s\nBit rate                         : 1 184 Kbps\nWidth                            : 720 pixels\nHeight                           : 320 pixels\nDisplay aspect ratio             : 2.25:1\nFrame rate                       : 25.000 fps\nColor space                      : YUV\nChroma subsampling               : 4:2:0\nBit depth                        : 8 bits\nScan type                        : Progressive\nBits/(Pixel*Frame)               : 0.206\nStream size                      : 36.9 MiB (88%)\nWriting library                  : XviD 1.2.1 (UTC 2008-12-04)\n\nAudio\nID                               : 1\nFormat                           : MPEG Audio\nFormat version                   : Version 1\nFormat profile                   : Layer 3\nMode                             : Joint stereo\nMode extension                   : MS Stereo\nCodec ID                         : 55\nCodec ID/Hint                    : MP3\nDuration                         : 4mn 21s\nBit rate mode                    : Variable\nBit rate                         : 152 Kbps\nMinimum bit rate                 : 32.0 Kbps\nChannel(s)                       : 2 channels\nSampling rate                    : 48.0 KHz\nStream size                      : 4.73 MiB (11%)\nAlignment                        : Aligned on interleaves\nInterleave, duration             : 24 ms (0.60 video frame)\nInterleave, preload duration     : 235 ms\nWriting library                  : LAME3.98r\nEncoding settings                : -m j -V 5 -q 2 -lowpass 16.5 --vbr-new -b 32","torrent":{"xt":"urn:btih:e68444a489b8421aa7e34844abf483f27670dbe1","amp;dn":"Enrique_Iglesias-Tired_Of_Being_Sorry-DVDRip-XviD-2007-MVcl","amp;tr":["udp%3A%2F%2Ftracker.openbittorrent.com%3A80","udp%3A%2F%2Fopen.demonii.com%3A1337","udp%3A%2F%2Ftracker.coppersurfer.tk%3A6969","udp%3A%2F%2Fexodus.desync.com%3A6969"],"infoHash":"e68444a489b8421aa7e34844abf483f27670dbe1","infoHashBuffer":{"type":"Buffer","data":[230,132,68,164,137,184,66,26,167,227,72,68,171,244,131,242,118,112,219,225]},"announce":[],"urlList":[]}}